<?xml version="1.0" standalone="no"?>
<!DOCTYPE svg PUBLIC "-//W3C//DTD SVG 20010904//EN"
 "http://www.w3.org/TR/2001/REC-SVG-20010904/DTD/svg10.dtd">
<svg version="1.0" xmlns="http://www.w3.org/2000/svg"
 width="256.000000pt" height="256.000000pt" viewBox="0 0 256.000000 256.000000"
 preserveAspectRatio="xMidYMid meet">

<g transform="translate(0.000000,256.000000) scale(0.100000,-0.100000)"
fill="#000000" stroke="none">
<path d="M355 1598 l-28 -24 -25 -336 c-28 -364 -28 -368 25 -368 40 0 58 16
125 107 85 117 136 196 252 392 108 181 116 214 64 239 -50 23 -76 1 -141
-123 -144 -274 -200 -375 -204 -371 -2 2 6 108 18 235 25 253 25 252 -32 266
-19 5 -33 0 -54 -17z"/>
<path d="M920 1613 c-30 -11 -50 -37 -50 -63 0 -34 17 -50 55 -50 46 0 75 25
75 65 0 28 -5 35 -31 44 -18 6 -32 11 -33 10 -1 0 -8 -3 -16 -6z"/>
<path d="M1129 1609 c-15 -6 -32 -23 -39 -40 -11 -25 -10 -32 5 -49 38 -42
125 -11 125 44 0 40 -45 61 -91 45z"/>
<path d="M1339 1605 c-15 -8 -29 -20 -32 -27 -2 -7 -57 -150 -122 -318 -128
-330 -128 -332 -72 -374 40 -29 143 -28 211 2 64 29 162 131 204 213 66 130
64 239 -4 307 -32 32 -38 34 -83 30 l-49 -5 24 65 c27 71 24 99 -13 113 -31
11 -32 11 -64 -6z m79 -307 c36 -36 -9 -181 -75 -238 -40 -36 -70 -38 -84 -7
-8 19 -3 43 31 132 22 60 46 113 53 117 18 12 62 9 75 -4z"/>
<path d="M1871 1430 c-220 -79 -383 -417 -260 -540 47 -47 101 -42 252 21 142
59 169 81 171 135 1 37 -1 39 -30 42 -19 2 -70 -12 -125 -33 -109 -42 -152
-43 -157 -5 -2 22 5 28 70 54 161 65 286 128 298 152 18 33 15 110 -5 140 -35
54 -121 67 -214 34z m24 -139 c-3 -6 -25 -21 -47 -32 -53 -27 -46 -2 7 28 40
22 53 23 40 4z"/>
<path d="M830 1412 c-15 -16 -33 -44 -38 -63 -6 -19 -42 -119 -81 -224 -73
-195 -80 -222 -59 -243 18 -18 73 -15 96 6 22 20 192 466 192 505 0 52 -66 63
-110 19z"/>
<path d="M1063 1430 c-12 -5 -28 -22 -36 -37 -28 -54 -177 -461 -177 -482 0
-28 41 -54 73 -46 14 4 34 16 44 28 18 20 193 477 193 503 0 17 -35 44 -56 43
-10 0 -29 -4 -41 -9z"/>
<path d="M2329 1420 c-101 -17 -165 -80 -184 -180 -9 -48 6 -80 60 -137 80
-83 78 -93 -15 -108 -101 -15 -121 -24 -136 -61 -19 -46 -5 -74 37 -74 42 0
260 40 282 52 26 13 57 68 57 100 0 16 -26 65 -70 129 -38 57 -70 111 -70 121
0 31 37 41 130 34 79 -6 89 -4 113 14 35 28 37 82 5 104 -24 17 -126 20 -209
6z"/>
</g>
</svg>
